<?xml version="1.0" encoding="UTF-8" standalone="no"?>
<!DOCTYPE svg PUBLIC "-//W3C//DTD SVG 1.1//EN"
 "http://www.w3.org/Graphics/SVG/1.1/DTD/svg11.dtd">
<!-- Generated by graphviz version 2.43.0 (0)
 -->
<!-- Title: abstract_pyprocessor.PyProcessor Pages: 1 -->
<svg width="663pt" height="374pt"
 viewBox="0.00 0.00 663.00 374.00" xmlns="http://www.w3.org/2000/svg" xmlns:xlink="http://www.w3.org/1999/xlink">
<g id="graph0" class="graph" transform="scale(1 1) rotate(0) translate(4 370)">
<title>abstract_pyprocessor.PyProcessor</title>
<!-- Node1 -->
<g id="Node000001" class="node">
<title>Node1</title>
<g id="a_Node000001"><a xlink:title=" ">
<polygon fill="#999999" stroke="#666666" points="255,-240.5 73,-240.5 73,-221.5 255,-221.5 255,-240.5"/>
<text text-anchor="middle" x="164" y="-228.5" font-family="Helvetica,sans-Serif" font-size="10.00">abstract_pyprocessor.PyProcessor</text>
</a>
</g>
</g>
<!-- Node3 -->
<g id="Node000003" class="node">
<title>Node3</title>
<g id="a_Node000003"><a xlink:href="classcontour__pyprocessor_1_1ContourPyProcessor.html" target="_top" xlink:title=" ">
<polygon fill="white" stroke="#666666" points="457,-294 299,-294 299,-264 457,-264 457,-294"/>
<text text-anchor="start" x="307" y="-282" font-family="Helvetica,sans-Serif" font-size="10.00">contour_pyprocessor.Contour</text>
<text text-anchor="middle" x="378" y="-271" font-family="Helvetica,sans-Serif" font-size="10.00">PyProcessor</text>
</a>
</g>
</g>
<!-- Node1&#45;&gt;Node3 -->
<g id="edge2_Node000001_Node000003" class="edge">
<title>Node1&#45;&gt;Node3</title>
<g id="a_edge2_Node000001_Node000003"><a xlink:title=" ">
<path fill="none" stroke="#63b8ff" d="M217.2,-242.82C245.43,-249.21 280.59,-257.17 310.73,-264"/>
<polygon fill="#63b8ff" stroke="#63b8ff" points="217.66,-239.34 207.14,-240.54 216.12,-246.16 217.66,-239.34"/>
</a>
</g>
</g>
<!-- Node4 -->
<g id="Node000004" class="node">
<title>Node4</title>
<g id="a_Node000004"><a xlink:href="classfmmorph__pyprocessor_1_1FMMorphPyProcessor.html" target="_top" xlink:title=" ">
<polygon fill="white" stroke="#666666" points="465,-246 291,-246 291,-216 465,-216 465,-246"/>
<text text-anchor="start" x="299" y="-234" font-family="Helvetica,sans-Serif" font-size="10.00">fmmorph_pyprocessor.FMMorph</text>
<text text-anchor="middle" x="378" y="-223" font-family="Helvetica,sans-Serif" font-size="10.00">PyProcessor</text>
</a>
</g>
</g>
<!-- Node1&#45;&gt;Node4 -->
<g id="edge3_Node000001_Node000004" class="edge">
<title>Node1&#45;&gt;Node4</title>
<g id="a_edge3_Node000001_Node000004"><a xlink:title=" ">
<path fill="none" stroke="#63b8ff" d="M265.25,-231C273.83,-231 282.46,-231 290.91,-231"/>
<polygon fill="#63b8ff" stroke="#63b8ff" points="265.21,-227.5 255.21,-231 265.21,-234.5 265.21,-227.5"/>
</a>
</g>
</g>
<!-- Node5 -->
<g id="Node000005" class="node">
<title>Node5</title>
<g id="a_Node000005"><a xlink:href="classmatched__filter__pyprocessor_1_1BaseMatchedFilter.html" target="_top" xlink:title=" ">
<polygon fill="white" stroke="#666666" points="455,-198 301,-198 301,-168 455,-168 455,-198"/>
<text text-anchor="start" x="309" y="-186" font-family="Helvetica,sans-Serif" font-size="10.00">matched_filter_pyprocessor.</text>
<text text-anchor="middle" x="378" y="-175" font-family="Helvetica,sans-Serif" font-size="10.00">BaseMatchedFilter</text>
</a>
</g>
</g>
<!-- Node1&#45;&gt;Node5 -->
<g id="edge4_Node000001_Node000005" class="edge">
<title>Node1&#45;&gt;Node5</title>
<g id="a_edge4_Node000001_Node000005"><a xlink:title=" ">
<path fill="none" stroke="#63b8ff" d="M217.2,-219.18C245.43,-212.79 280.59,-204.83 310.73,-198"/>
<polygon fill="#63b8ff" stroke="#63b8ff" points="216.12,-215.84 207.14,-221.46 217.66,-222.66 216.12,-215.84"/>
</a>
</g>
</g>
<!-- Node2 -->
<g id="Node000002" class="node">
<title>Node2</title>
<g id="a_Node000002"><a xlink:title=" ">
<polygon fill="white" stroke="#666666" points="37,-240.5 0,-240.5 0,-221.5 37,-221.5 37,-240.5"/>
<text text-anchor="middle" x="18.5" y="-228.5" font-family="Helvetica,sans-Serif" font-size="10.00">ABC</text>
</a>
</g>
</g>
<!-- Node2&#45;&gt;Node1 -->
<g id="edge1_Node000001_Node000002" class="edge">
<title>Node2&#45;&gt;Node1</title>
<g id="a_edge1_Node000001_Node000002"><a xlink:title=" ">
<path fill="none" stroke="#63b8ff" d="M47.18,-231C54.88,-231 63.69,-231 72.93,-231"/>
<polygon fill="#63b8ff" stroke="#63b8ff" points="47.1,-227.5 37.1,-231 47.1,-234.5 47.1,-227.5"/>
</a>
</g>
</g>
<!-- Node6 -->
<g id="Node000006" class="node">
<title>Node6</title>
<g id="a_Node000006"><a xlink:href="classmatched__filter__pyprocessor_1_1MFGammaPyProcessor.html" target="_top" xlink:title=" ">
<polygon fill="white" stroke="#666666" points="655,-366 501,-366 501,-336 655,-336 655,-366"/>
<text text-anchor="start" x="509" y="-354" font-family="Helvetica,sans-Serif" font-size="10.00">matched_filter_pyprocessor.</text>
<text text-anchor="middle" x="578" y="-343" font-family="Helvetica,sans-Serif" font-size="10.00">MFGammaPyProcessor</text>
</a>
</g>
</g>
<!-- Node5&#45;&gt;Node6 -->
<g id="edge5_Node000005_Node000006" class="edge">
<title>Node5&#45;&gt;Node6</title>
<g id="a_edge5_Node000005_Node000006"><a xlink:title=" ">
<path fill="none" stroke="#63b8ff" d="M462.01,-204.27C463.04,-205.14 464.04,-206.05 465,-207 504.75,-245.99 461.91,-287.34 501,-327 504.4,-330.45 508.29,-333.4 512.47,-335.93"/>
<polygon fill="#63b8ff" stroke="#63b8ff" points="463.74,-201.21 453.57,-198.23 459.67,-206.9 463.74,-201.21"/>
</a>
</g>
</g>
<!-- Node7 -->
<g id="Node000007" class="node">
<title>Node7</title>
<g id="a_Node000007"><a xlink:href="classmatched__filter__pyprocessor_1_1MFHystGammaPyProcessor.html" target="_top" xlink:title=" ">
<polygon fill="white" stroke="#666666" points="655,-318 501,-318 501,-288 655,-288 655,-318"/>
<text text-anchor="start" x="509" y="-306" font-family="Helvetica,sans-Serif" font-size="10.00">matched_filter_pyprocessor.</text>
<text text-anchor="middle" x="578" y="-295" font-family="Helvetica,sans-Serif" font-size="10.00">MFHystGammaPyProcessor</text>
</a>
</g>
</g>
<!-- Node5&#45;&gt;Node7 -->
<g id="edge6_Node000005_Node000007" class="edge">
<title>Node5&#45;&gt;Node7</title>
<g id="a_edge6_Node000005_Node000007"><a xlink:title=" ">
<path fill="none" stroke="#63b8ff" d="M460.11,-203.32C461.8,-204.48 463.43,-205.71 465,-207 492.6,-229.76 473.79,-255.77 501,-279 505,-282.41 509.49,-285.34 514.23,-287.86"/>
<polygon fill="#63b8ff" stroke="#63b8ff" points="461.64,-200.16 451.26,-198.06 458.06,-206.18 461.64,-200.16"/>
</a>
</g>
</g>
<!-- Node8 -->
<g id="Node000008" class="node">
<title>Node8</title>
<g id="a_Node000008"><a xlink:href="classmatched__filter__pyprocessor_1_1MFHystSigmoidPyProcessor.html" target="_top" xlink:title=" ">
<polygon fill="white" stroke="#666666" points="655,-270 501,-270 501,-240 655,-240 655,-270"/>
<text text-anchor="start" x="509" y="-258" font-family="Helvetica,sans-Serif" font-size="10.00">matched_filter_pyprocessor.</text>
<text text-anchor="middle" x="578" y="-247" font-family="Helvetica,sans-Serif" font-size="10.00">MFHystSigmoidPyProcessor</text>
</a>
</g>
</g>
<!-- Node5&#45;&gt;Node8 -->
<g id="edge7_Node000005_Node000008" class="edge">
<title>Node5&#45;&gt;Node8</title>
<g id="a_edge7_Node000005_Node000008"><a xlink:title=" ">
<path fill="none" stroke="#63b8ff" d="M451.46,-201.41C456.1,-203.14 460.65,-205 465,-207 482.48,-215.02 483.66,-222.69 501,-231 507.86,-234.29 515.28,-237.27 522.71,-239.93"/>
<polygon fill="#63b8ff" stroke="#63b8ff" points="452.43,-198.04 441.84,-198.03 450.11,-204.65 452.43,-198.04"/>
</a>
</g>
</g>
<!-- Node9 -->
<g id="Node000009" class="node">
<title>Node9</title>
<g id="a_Node000009"><a xlink:href="classmatched__filter__pyprocessor_1_1MFHysteresisPyProcessor.html" target="_top" xlink:title=" ">
<polygon fill="white" stroke="#666666" points="655,-222 501,-222 501,-192 655,-192 655,-222"/>
<text text-anchor="start" x="509" y="-210" font-family="Helvetica,sans-Serif" font-size="10.00">matched_filter_pyprocessor.</text>
<text text-anchor="middle" x="578" y="-199" font-family="Helvetica,sans-Serif" font-size="10.00">MFHysteresisPyProcessor</text>
</a>
</g>
</g>
<!-- Node5&#45;&gt;Node9 -->
<g id="edge8_Node000005_Node000009" class="edge">
<title>Node5&#45;&gt;Node9</title>
<g id="a_edge8_Node000005_Node000009"><a xlink:title=" ">
<path fill="none" stroke="#63b8ff" d="M465.51,-193.49C477.25,-194.91 489.23,-196.36 500.77,-197.76"/>
<polygon fill="#63b8ff" stroke="#63b8ff" points="465.62,-189.97 455.27,-192.24 464.77,-196.92 465.62,-189.97"/>
</a>
</g>
</g>
<!-- Node10 -->
<g id="Node000010" class="node">
<title>Node10</title>
<g id="a_Node000010"><a xlink:href="classmatched__filter__pyprocessor_1_1MFSigmoidPyProcessor.html" target="_top" xlink:title=" ">
<polygon fill="white" stroke="#666666" points="655,-174 501,-174 501,-144 655,-144 655,-174"/>
<text text-anchor="start" x="509" y="-162" font-family="Helvetica,sans-Serif" font-size="10.00">matched_filter_pyprocessor.</text>
<text text-anchor="middle" x="578" y="-151" font-family="Helvetica,sans-Serif" font-size="10.00">MFSigmoidPyProcessor</text>
</a>
</g>
</g>
<!-- Node5&#45;&gt;Node10 -->
<g id="edge9_Node000005_Node000010" class="edge">
<title>Node5&#45;&gt;Node10</title>
<g id="a_edge9_Node000005_Node000010"><a xlink:title=" ">
<path fill="none" stroke="#63b8ff" d="M465.51,-172.51C477.25,-171.09 489.23,-169.64 500.77,-168.24"/>
<polygon fill="#63b8ff" stroke="#63b8ff" points="464.77,-169.08 455.27,-173.76 465.62,-176.03 464.77,-169.08"/>
</a>
</g>
</g>
<!-- Node11 -->
<g id="Node000011" class="node">
<title>Node11</title>
<g id="a_Node000011"><a xlink:href="classmatched__filter__pyprocessor_1_1MatchedFilterPyProcessor.html" target="_top" xlink:title=" ">
<polygon fill="white" stroke="#666666" points="655,-126 501,-126 501,-96 655,-96 655,-126"/>
<text text-anchor="start" x="509" y="-114" font-family="Helvetica,sans-Serif" font-size="10.00">matched_filter_pyprocessor.</text>
<text text-anchor="middle" x="578" y="-103" font-family="Helvetica,sans-Serif" font-size="10.00">MatchedFilterPyProcessor</text>
</a>
</g>
</g>
<!-- Node5&#45;&gt;Node11 -->
<g id="edge10_Node000005_Node000011" class="edge">
<title>Node5&#45;&gt;Node11</title>
<g id="a_edge10_Node000005_Node000011"><a xlink:title=" ">
<path fill="none" stroke="#63b8ff" d="M424.74,-164.14C447.52,-154.97 475.56,-144.01 501,-135 509.48,-132 518.55,-128.97 527.37,-126.13"/>
<polygon fill="#63b8ff" stroke="#63b8ff" points="423.28,-160.96 415.32,-167.95 425.9,-167.44 423.28,-160.96"/>
</a>
</g>
</g>
<!-- Node12 -->
<g id="Node000012" class="node">
<title>Node12</title>
<g id="a_Node000012"><a xlink:href="classmatched__filter__pyprocessor_1_1PyramidMFPyProcessor.html" target="_top" xlink:title=" ">
<polygon fill="white" stroke="#666666" points="655,-78 501,-78 501,-48 655,-48 655,-78"/>
<text text-anchor="start" x="509" y="-66" font-family="Helvetica,sans-Serif" font-size="10.00">matched_filter_pyprocessor.</text>
<text text-anchor="middle" x="578" y="-55" font-family="Helvetica,sans-Serif" font-size="10.00">PyramidMFPyProcessor</text>
</a>
</g>
</g>
<!-- Node5&#45;&gt;Node12 -->
<g id="edge11_Node000005_Node000012" class="edge">
<title>Node5&#45;&gt;Node12</title>
<g id="a_edge11_Node000005_Node000012"><a xlink:title=" ">
<path fill="none" stroke="#63b8ff" d="M401.86,-160.81C425.12,-139.3 463.06,-107.06 501,-87 507.36,-83.64 514.27,-80.65 521.25,-78.03"/>
<polygon fill="#63b8ff" stroke="#63b8ff" points="399.16,-158.54 394.26,-167.94 403.95,-163.65 399.16,-158.54"/>
</a>
</g>
</g>
<!-- Node13 -->
<g id="Node000013" class="node">
<title>Node13</title>
<g id="a_Node000013"><a xlink:href="classmatched__filter__pyprocessor_1_1SmallMFPyProcessor.html" target="_top" xlink:title=" ">
<polygon fill="white" stroke="#666666" points="655,-30 501,-30 501,0 655,0 655,-30"/>
<text text-anchor="start" x="509" y="-18" font-family="Helvetica,sans-Serif" font-size="10.00">matched_filter_pyprocessor.</text>
<text text-anchor="middle" x="578" y="-7" font-family="Helvetica,sans-Serif" font-size="10.00">SmallMFPyProcessor</text>
</a>
</g>
</g>
<!-- Node5&#45;&gt;Node13 -->
<g id="edge12_Node000005_Node000013" class="edge">
<title>Node5&#45;&gt;Node13</title>
<g id="a_edge12_Node000005_Node000013"><a xlink:title=" ">
<path fill="none" stroke="#63b8ff" d="M393.03,-159.27C413.07,-127.39 452.83,-71.04 501,-39 506.18,-35.55 511.89,-32.57 517.79,-30.01"/>
<polygon fill="#63b8ff" stroke="#63b8ff" points="389.95,-157.6 387.69,-167.95 395.91,-161.27 389.95,-157.6"/>
</a>
</g>
</g>
</g>
</svg>
